<svg id="visual" viewBox="0 0 900 600" width="900" height="600" xmlns="http://www.w3.org/2000/svg" xmlns:xlink="http://www.w3.org/1999/xlink" version="1.1"><rect width="900" height="600" fill="#001829"></rect><g><g transform="translate(250 425)"><path d="M0 -74.3L52.6 -52.6L74.3 0L52.6 52.6L0 74.3L-52.6 52.6L-74.3 0L-52.6 -52.6Z" fill="#297EA6"></path></g><g transform="translate(814 121)"><path d="M0 -66L46.7 -46.7L66 0L46.7 46.7L0 66L-46.7 46.7L-66 0L-46.7 -46.7Z" fill="#297EA6"></path></g><g transform="translate(248 92)"><path d="M0 -44L31.1 -31.1L44 0L31.1 31.1L0 44L-31.1 31.1L-44 0L-31.1 -31.1Z" fill="#297EA6"></path></g><g transform="translate(406 424)"><path d="M0 -14L9.9 -9.9L14 0L9.9 9.9L0 14L-9.9 9.9L-14 0L-9.9 -9.9Z" fill="#297EA6"></path></g><g transform="translate(130 538)"><path d="M0 -22L15.6 -15.6L22 0L15.6 15.6L0 22L-15.6 15.6L-22 0L-15.6 -15.6Z" fill="#297EA6"></path></g><g transform="translate(521 159)"><path d="M0 -20L14.1 -14.1L20 0L14.1 14.1L0 20L-14.1 14.1L-20 0L-14.1 -14.1Z" fill="#297EA6"></path></g><g transform="translate(740 337)"><path d="M0 -54L38.2 -38.2L54 0L38.2 38.2L0 54L-38.2 38.2L-54 0L-38.2 -38.2Z" fill="#297EA6"></path></g><g transform="translate(775 593)"><path d="M0 -38L26.9 -26.9L38 0L26.9 26.9L0 38L-26.9 26.9L-38 0L-26.9 -26.9Z" fill="#297EA6"></path></g><g transform="translate(407 266)"><path d="M0 -19L13.4 -13.4L19 0L13.4 13.4L0 19L-13.4 13.4L-19 0L-13.4 -13.4Z" fill="#297EA6"></path></g><g transform="translate(24 198)"><path d="M0 -47L33.2 -33.2L47 0L33.2 33.2L0 47L-33.2 33.2L-47 0L-33.2 -33.2Z" fill="#297EA6"></path></g><g transform="translate(543 326)"><path d="M0 -52L36.8 -36.8L52 0L36.8 36.8L0 52L-36.8 36.8L-52 0L-36.8 -36.8Z" fill="#297EA6"></path></g><g transform="translate(635 540)"><path d="M0 -63L44.5 -44.5L63 0L44.5 44.5L0 63L-44.5 44.5L-63 0L-44.5 -44.5Z" fill="#297EA6"></path></g><g transform="translate(627 53)"><path d="M0 -15L10.6 -10.6L15 0L10.6 10.6L0 15L-10.6 10.6L-15 0L-10.6 -10.6Z" fill="#297EA6"></path></g><g transform="translate(7 414)"><path d="M0 -25L17.7 -17.7L25 0L17.7 17.7L0 25L-17.7 17.7L-25 0L-17.7 -17.7Z" fill="#297EA6"></path></g><g transform="translate(413 49)"><path d="M0 -66L46.7 -46.7L66 0L46.7 46.7L0 66L-46.7 46.7L-66 0L-46.7 -46.7Z" fill="#297EA6"></path></g><g transform="translate(189 252)"><path d="M0 -38L26.9 -26.9L38 0L26.9 26.9L0 38L-26.9 26.9L-38 0L-26.9 -26.9Z" fill="#297EA6"></path></g><g transform="translate(282 588)"><path d="M0 -9L6.4 -6.4L9 0L6.4 6.4L0 9L-6.4 6.4L-9 0L-6.4 -6.4Z" fill="#297EA6"></path></g><g transform="translate(74 10)"><path d="M0 -17L12 -12L17 0L12 12L0 17L-12 12L-17 0L-12 -12Z" fill="#297EA6"></path></g><g transform="translate(878 402)"><path d="M0 -45L31.8 -31.8L45 0L31.8 31.8L0 45L-31.8 31.8L-45 0L-31.8 -31.8Z" fill="#297EA6"></path></g><g transform="translate(470 562)"><path d="M0 -31L21.9 -21.9L31 0L21.9 21.9L0 31L-21.9 21.9L-31 0L-21.9 -21.9Z" fill="#297EA6"></path></g></g></svg>